<svg width="240" height="136" viewBox="0 0 240 136" fill="none" xmlns="http://www.w3.org/2000/svg">
    <path
        d="M105.608 28.7365C108.798 19.4199 113.192 13.1125 120.317 6.45801C127.748 13.7891 131.308 19.0249 134.775 28.9854C138.96 23.8762 142.78 19.7892 148.417 16.2589C150.297 15.081 152.397 14.2502 154.216 12.9769C155.751 15.4218 153.449 38.2775 151.077 40.6163C152.482 40.0309 153.935 38.6129 155.171 37.6851C163.956 31.0889 175.607 26.2215 186.435 25.0141C188.904 24.7389 191.378 24.8442 193.851 24.6839C193.876 25.4278 192.241 26.8795 191.709 27.4503C185.728 33.8678 180.4 41.9295 179.126 50.8248C178.947 52.0674 179.182 53.6625 178.628 54.8023C178.473 55.235 175.066 56.9119 174.431 57.2689C160.9 64.8726 149.444 75.3035 141.224 88.6546C140.236 90.2598 139.112 91.9592 138.388 93.7022C137.91 94.8524 137.781 96.4095 136.922 97.348C137.338 95.5173 135.952 89.9166 135.664 87.7743C134.413 78.4782 134.094 68.1866 136.995 59.1359C138.039 55.881 140.019 52.5027 140.753 49.256C141.278 46.9379 140.529 38.7463 138.847 37.1507C138.841 37.6187 134.808 43.3514 134.107 44.5818C127.841 55.5837 125.422 68.1297 126.147 80.7589C126.431 85.712 127.056 90.6462 126.897 95.6153C125.444 88.9154 125.269 81.4885 124.069 74.6195C123.079 68.9532 120.984 63.3055 120.125 57.8546C119.855 58.568 119.637 59.3027 119.406 60.0295C117.742 65.9003 116.209 71.9701 115.396 78.0253C114.669 83.4358 114.443 88.9457 113.573 94.3297C113.329 92.5045 113.444 90.5679 113.443 88.7274L113.445 79.4897C113.461 66.3686 112.618 55.6775 105.625 43.8524C104.197 41.4381 102.416 39.2087 100.845 36.8819C99.5326 40.5462 98.1661 44.4798 98.38 48.4397C98.4568 49.8651 99.6739 51.2248 100.268 52.4932C107.64 68.2283 104.444 83.0361 102.843 99.6406C97.9079 81.0529 77.8624 63.545 61.1927 55.0891C61.209 44.2498 55.53 34.6838 47.9489 27.4211C47.0369 26.5474 46.0402 25.7642 45.1831 24.8337C56.7329 23.2909 71.5256 29.1811 81.1412 35.0669C84.2585 36.9751 87.0692 39.3466 90.1704 41.2485C86.2157 33.0048 86.1754 21.7061 86.9349 12.7344C94.472 16.3645 100.443 22.2667 105.608 28.7365Z"
        fill="#FCC050" />
    <path
        d="M8.71826 57.2949C12.8281 55.6032 21.0688 55.0863 25.5702 54.9527C57.9651 54.3818 92.3397 80.1562 97.7629 112.955C112.248 113.132 126.748 112.93 141.234 112.986C141.702 112.316 142.335 108.364 142.583 107.398C151.272 73.4497 192.386 49.3081 225.902 56.1448C227.405 56.4516 229.335 56.7424 230.709 57.3922C230.075 57.9393 227.61 58.494 226.667 58.872C219.268 61.8393 212.644 67.4248 209.428 74.8724C208.834 76.2489 208.476 79.5142 207.557 80.4609C189.153 75.8855 166.602 91.6333 160.345 108.421C159.826 109.815 159.675 111.755 158.746 112.928C163.391 113.083 168.067 112.973 172.717 112.973L200.947 112.989L215.589 112.97C219.795 112.969 224.006 112.906 228.208 113.09C228.887 114.533 228.398 116.982 228.398 118.568L228.395 125.016C228.394 126.047 228.733 128.025 228.187 128.917C216.912 129.101 205.606 128.937 194.329 128.937L51.8596 128.938C38.1366 128.938 24.4007 129.067 10.6789 128.908C11.1351 124.615 10.9889 117.33 10.7495 112.951C23.7752 113.136 36.8243 112.97 49.8534 112.973L68.6 112.974C72.3504 112.974 76.1104 113.031 79.8595 112.92C74.3772 93.0348 53.4919 75.6403 32.3139 80.6933C30.1059 71.6878 24.4425 64.0543 15.9565 60.0691C13.6039 58.9644 11.0905 58.3343 8.71826 57.2949Z"
        fill="#FCC050" />
</svg>